Coordinates
version=1
nRows=7
nColumns=40
inDegrees=yes

Units are S.I. units (second, meters, Newtons, ...)
If the header above contains a line with 'inDegrees', this indicates whether rotational values are in degrees (yes) or radians (no).

endheader
time	pelvis_tilt	pelvis_list	pelvis_rotation	pelvis_tx	pelvis_ty	pelvis_tz	hip_flexion_r	hip_adduction_r	hip_rotation_r	knee_angle_r	knee_angle_r_beta	ankle_angle_r	subtalar_angle_r	mtp_angle_r	hip_flexion_l	hip_adduction_l	hip_rotation_l	knee_angle_l	knee_angle_l_beta	ankle_angle_l	subtalar_angle_l	mtp_angle_l	lumbar_extension	lumbar_bending	lumbar_rotation	arm_flex_r	arm_add_r	arm_rot_r	elbow_flex_r	pro_sup_r	wrist_flex_r	wrist_dev_r	arm_flex_l	arm_add_l	arm_rot_l	elbow_flex_l	pro_sup_l	wrist_flex_l	wrist_dev_l
      4.80000000	     -3.79258258	    -10.08725207	      4.48936805	     -0.34654606	      0.85031703	     -1.04282727	     63.47899819	     -4.63087708	    -12.60893458	     40.70563836	      0.71044741	     -8.27722354	      0.00000000	      0.00000000	     50.37684454	     -3.94741953	      3.65473441	     80.57833953	      1.40635733	     22.99823961	      0.00000000	      0.00000000	    -20.01812285	      8.12515306	      2.92339270	     89.87514983	    -19.82500666	     18.93692237	     47.44611185	     85.00943718	      0.00000000	      0.00000000	     89.93095170	    -22.66631906	     26.78512693	     47.70781905	     85.59083768	      0.00000000	      0.00000000
      4.80500000	     -3.83055922	    -10.12018141	      4.46520208	     -0.34613508	      0.85155127	     -1.04268728	     63.40047755	     -4.56769937	    -12.64455128	     40.66808997	      0.70979207	     -8.26804154	      0.00000000	      0.00000000	     50.26713931	     -4.03055880	      3.64480941	     80.32765478	      1.40198206	     22.90525689	      0.00000000	      0.00000000	    -19.92367331	      8.14312763	      2.95349617	     89.87386669	    -19.85621930	     18.99260958	     47.41934649	     85.00409550	      0.00000000	      0.00000000	     89.93048177	    -22.68041461	     26.85149891	     47.71877819	     85.58981935	      0.00000000	      0.00000000
      4.81000000	     -3.79797730	    -10.10463230	      4.47839780	     -0.34588381	      0.85317906	     -1.04260755	     63.21542411	     -4.53434201	    -12.63840886	     40.55248598	      0.70777440	     -8.28022710	      0.00000000	      0.00000000	     50.05643090	     -4.05588515	      3.61372488	     80.01284910	      1.39648766	     22.75952774	      0.00000000	      0.00000000	    -19.91276491	      8.12637353	      2.96242776	     89.87364147	    -19.88581721	     19.07156160	     47.36421373	     84.99724676	      0.00000000	      0.00000000	     89.93032381	    -22.69009648	     26.97168825	     47.69824443	     85.59119897	      0.00000000	      0.00000000
      4.81500000	     -3.77378400	    -10.10719194	      4.50248019	     -0.34548904	      0.85458284	     -1.04261391	     63.05153439	     -4.51946753	    -12.65686447	     40.47644232	      0.70644719	     -8.28893315	      0.00000000	      0.00000000	     49.86805152	     -4.07262865	      3.60705418	     79.74736333	      1.39185406	     22.63094587	      0.00000000	      0.00000000	    -19.88154325	      8.13683869	      2.96290652	     89.87262793	    -19.93472333	     19.16903478	     47.32644779	     84.99042812	      0.00000000	      0.00000000	     89.93005046	    -22.70535045	     27.06990386	     47.70564967	     85.58997617	      0.00000000	      0.00000000
      4.82000000	     -3.79248696	    -10.11144035	      4.50112615	     -0.34530938	      0.85597802	     -1.04252711	     62.94892483	     -4.48495533	    -12.63883607	     40.42298667	      0.70551421	     -8.33034958	      0.00000000	      0.00000000	     49.73881303	     -4.10639568	      3.59619178	     79.48352363	      1.38724919	     22.53064527	      0.00000000	      0.00000000	    -19.82721449	      8.13167885	      2.97421726	     89.87202518	    -19.96286942	     19.19792286	     47.30649273	     84.98016478	      0.00000000	      0.00000000	     89.93005993	    -22.72208838	     27.13200980	     47.70199921	     85.58725214	      0.00000000	      0.00000000
      4.82500000	     -3.64170297	    -10.00865341	      4.51235748	     -0.34485797	      0.85776628	     -1.04258842	     62.62405366	     -4.48629089	    -12.54982349	     40.28510458	      0.70310771	     -8.39779445	      0.00000000	      0.00000000	     49.35641361	     -4.07872270	      3.47450332	     79.17281514	      1.38182630	     22.34088743	      0.00000000	      0.00000000	    -19.94077831	      8.04969180	      2.98016674	     89.87170964	    -20.02400233	     19.39514502	     47.27109647	     84.95416585	      0.00000000	      0.00000000	     89.93007687	    -22.76641989	     27.32065121	     47.73300627	     85.57678580	      0.00000000	      0.00000000
      4.83000000	     -3.70246962	    -10.05240100	      4.50746294	     -0.34455452	      0.85904398	     -1.04244486	     62.58158306	     -4.43718726	    -12.56199958	     40.28253555	      0.70306288	     -8.38350365	      0.00000000	      0.00000000	     49.27690124	     -4.15769986	      3.48271731	     78.90449204	      1.37714318	     22.27525551	      0.00000000	      0.00000000	    -19.83139552	      8.07468184	      2.98088578	     89.87029796	    -20.05915433	     19.39875704	     47.27050240	     84.94559739	      0.00000000	      0.00000000	     89.92948591	    -22.78949440	     27.33265488	     47.74551275	     85.57139771	      0.00000000	      0.00000000
